HIERARCHY
ROOT Hips
{
    OFFSET 0.000000 0.000000 0.000000
    CHANNELS 6 Xposition Yposition Zposition Zrotation Xrotation Yrotation
    JOINT Spine
    {
        OFFSET -0.000000 7.883683 0.000000
        CHANNELS 3 Zrotation Xrotation Yrotation
        JOINT Spine1
        {
            OFFSET -0.000000 24.776327 0.000000
            CHANNELS 3 Zrotation Xrotation Yrotation
            JOINT Neck
            {
                OFFSET -0.000000 24.674574 2.243143
                CHANNELS 3 Zrotation Xrotation Yrotation
                JOINT Head
                {
                    OFFSET -0.000000 13.459947 -1.922849
                    CHANNELS 3 Zrotation Xrotation Yrotation
                    End Site
                    {
                        OFFSET -0.000000 24.035618 0.000000
                    }
                }
            }
            JOINT LeftShoulder
            {
                OFFSET 3.810223 22.323311 -0.325006
                CHANNELS 3 Zrotation Xrotation Yrotation
                JOINT LeftArm
                {
                    OFFSET 12.560579 0.000000 0.000000
                    CHANNELS 3 Zrotation Xrotation Yrotation
                    JOINT LeftForeArm
                    {
                        OFFSET 28.806782 0.000000 0.000000
                        CHANNELS 3 Zrotation Xrotation Yrotation
                        JOINT LeftHand
                        {
                            OFFSET 23.813900 0.000000 0.000000
                            CHANNELS 3 Zrotation Xrotation Yrotation
                            End Site
                            {
                                OFFSET 14.421371 0.000000 0.000000
                            }
                        }
                    }
                }
            }
            JOINT RightShoulder
            {
                OFFSET -3.823061 22.323311 -0.325006
                CHANNELS 3 Zrotation Xrotation Yrotation
                JOINT RightArm
                {
                    OFFSET -12.560579 0.000000 0.000000
                    CHANNELS 3 Zrotation Xrotation Yrotation
                    JOINT RightForeArm
                    {
                        OFFSET -28.806782 0.000000 0.000000
                        CHANNELS 3 Zrotation Xrotation Yrotation
                        JOINT RightHand
                        {
                            OFFSET -23.813900 0.000000 0.000000
                            CHANNELS 3 Zrotation Xrotation Yrotation
                            End Site
                            {
                                OFFSET -14.421371 0.000000 0.000000
                            }
                        }
                    }
                }
            }
        }
    }
    JOINT LeftUpLeg
    {
        OFFSET 9.614247 0.000000 0.000000
        CHANNELS 3 Zrotation Xrotation Yrotation
        JOINT LeftLeg
        {
            OFFSET -0.000000 -41.464203 0.000000
            CHANNELS 3 Zrotation Xrotation Yrotation
            JOINT LeftFoot
            {
                OFFSET -0.000000 -34.276012 0.000000
                CHANNELS 3 Zrotation Xrotation Yrotation
                JOINT LeftToeBase
                {
                    OFFSET -0.000000 -6.249260 14.421371
                    CHANNELS 3 Zrotation Xrotation Yrotation
                    End Site
                    {
                        OFFSET -0.000000 0.000000 3.845699
                    }
                }
            }
        }
    }
    JOINT RightUpLeg
    {
        OFFSET -9.614247 0.000000 0.000000
        CHANNELS 3 Zrotation Xrotation Yrotation
        JOINT RightLeg
        {
            OFFSET -0.000000 -41.464203 0.000000
            CHANNELS 3 Zrotation Xrotation Yrotation
            JOINT RightFoot
            {
                OFFSET -0.000000 -34.276012 0.000000
                CHANNELS 3 Zrotation Xrotation Yrotation
                JOINT RightToeBase
                {
                    OFFSET -0.000000 -6.249260 14.421371
                    CHANNELS 3 Zrotation Xrotation Yrotation
                    End Site
                    {
                        OFFSET -0.000000 0.000000 3.845699
                    }
                }
            }
        }
    }
}
MOTION
Frames:    4
Frame Time:    0.004000
-21.931305    47.970177    -191.826050    -10.647558    0.068253    9.324884    3.018260    69.590256    0.189647    6.555492    22.869106    0.959839    1.990436    8.352357    -6.317615    5.597769    -23.363760    -4.816224    4.028822    -4.041430    -5.018219    -18.821787    -7.079137    -59.963036    8.022367    -21.819202    -10.920454    -9.209072    -20.609709    -6.560721    -8.192954    -5.394109    24.835794    20.108412    -14.561996    47.854897    -10.325541    -24.003984    6.786510    15.351168    -23.783112    -2.762076    8.465977    -9.914317    6.609159    165.658203    72.409607    -168.562195    -2.950917    -32.086712    11.771982    0.000000    0.000000    0.000000    19.704189    -68.365379    2.638444    -174.472015    80.821655    178.708252    -11.536596    -35.146240    -14.375401    0.000000    0.000000    0.000000    
-21.947041    48.254498    -191.857559    -10.641296    0.325579    9.387049    1.983322    70.015335    1.168225    7.031874    22.097063    1.182633    2.408276    9.177649    -6.393205    5.077547    -24.071589    -5.053487    4.007957    -3.561408    -5.687550    -19.065189    -7.530829    -59.858807    8.319921    -21.712954    -10.701762    -9.360664    -20.482254    -6.565891    -8.177262    -4.581346    24.789679    19.242619    -14.926225    47.739765    -10.255797    -24.192999    6.648961    15.429608    -23.982985    -2.710738    8.372855    -10.035632    6.613524    164.715118    72.910538    -167.633926    -3.001877    -32.361206    12.073680    0.000000    0.000000    0.000000    19.921675    -68.285278    2.884481    -173.184845    81.413383    176.697891    -10.908291    -35.119640    -13.565952    0.000000    0.000000    0.000000    
-21.968344    48.540833    -191.893997    -10.671234    0.627253    9.447968    1.811625    70.008118    1.329934    7.099538    22.165596    1.206205    2.487561    9.100712    -6.393585    5.003751    -24.268064    -5.077998    4.133529    -3.670827    -5.816832    -19.107084    -7.745169    -59.826614    8.453664    -21.709812    -10.581591    -9.538379    -20.460699    -6.634268    -8.239124    -4.663033    24.761858    19.011665    -15.094999    47.819828    -10.271250    -24.235266    6.446538    15.503519    -24.039042    -2.680530    8.313963    -10.213537    6.529638    164.021286    73.450829    -166.836823    -3.208753    -32.645145    11.824352    0.000000    0.000000    0.000000    20.015291    -68.252548    3.142887    -173.259766    82.007553    176.459702    -10.640303    -35.005428    -13.149021    0.000000    0.000000    0.000000    
-22.021202    48.812901    -191.958481    -10.784972    1.033067    9.526145    1.582177    69.865868    1.571873    7.220809    22.255548    1.254800    2.506259    8.835514    -6.392703    4.951985    -24.245626    -5.103314    4.286730    -3.868659    -5.860649    -19.202917    -7.877101    -59.838226    8.486545    -21.736765    -10.554305    -9.222083    -20.518547    -6.445261    -8.409863    -4.801980    24.670229    18.940378    -15.255642    47.970070    -10.303551    -24.258368    6.233029    15.582866    -24.078571    -2.670406    8.400543    -10.684895    7.333739    160.865417    73.434631    -164.690231    -2.604938    -32.615627    13.050720    0.000000    0.000000    0.000000    20.386898    -68.321220    3.653749    -173.436081    82.690910    175.977722    -10.121552    -34.990078    -12.366780    0.000000    0.000000    0.000000    
